# xmcd
#
# Track frame offsets:
#	150
#	12640
#	24929
#	36564
#	48567
#	64283
#	82107
#	97392
#	113843
#	130210
#	143066
#	158405
#	175660
#	193079
#	205872
#	221256
#	240569
#	259209
#	273372
#	289899
#
# Disc length: 4026 seconds
#
# Revision: 2
# Processed by: cddbd v1.5.2PL0 Copyright (c) Steve Scherf et al.
# Submitted via: audiograbber 1.83.01
#
DISCID=2d0fb814
DTITLE=MIXED - COUNTRY SE 60 GROOTSTE TREFFERS
DYEAR=1900
DGENRE=Country
TTITLE0=BELLAMY BROTHERS - LET YOUR LOVE FLOW
TTITLE1=CLIVE BRUCE - SEVEN SPANISH ANGELS
TTITLE2=DIE CAMPBELLS - HILLBILLY ROCK HILLBILLY ROLL
TTITLE3=JUANITA DU PLESSIS - GREEN EYED ANGEL
TTITLE4=NICHOLIS LOUW AND RAY DYLAN - TO ALL THE GIRLS I LOVED BEFORE
TTITLE5=ALAN LADD - LUCILLE
TTITLE6=BLES BRIDGES - ACHY BREAKY HEART
TTITLE7=SMOKIE - STILL THE ONE
TTITLE8=AUDREY LANDERS - SOME BROKEN HEARTS NEVER MEND
TTITLE9=FOSTER AND ALLEN - CRYSTAL CHANDELIERS
TTITLE10=KURT DARREN - I WANT TO LIVE
TTITLE11=RAY DYLAN - I AIN'T MISSING YOU
TTITLE12=ELIZMA THERON - ANGEL OF THE MORNING
TTITLE13=FERDI NEST - ANNIE'S SONG
TTITLE14=ROCKING HORSE - SUGAR DADDY
TTITLE15=KENNY ROGERS - SHE BELIEVES IN ME
TTITLE16=JEFFREY DE BRUYN - BABY BLUE
TTITLE17=CHRISTO and COBUS - THE GAMBLER
TTITLE18=PAUL BUCKBY - IF TOMORROW NEVER COMES
TTITLE19=CHEREE - WHEN I WALK IN THE ROOM
EXTD=
EXTT0=
EXTT1=
EXTT2=
EXTT3=
EXTT4=
EXTT5=
EXTT6=
EXTT7=
EXTT8=
EXTT9=
EXTT10=
EXTT11=
EXTT12=
EXTT13=
EXTT14=
EXTT15=
EXTT16=
EXTT17=
EXTT18=
EXTT19=
PLAYORDER=
